<?xml version="1.0" standalone="no"?>
<!DOCTYPE svg PUBLIC "-//W3C//DTD SVG 20010904//EN"
 "http://www.w3.org/TR/2001/REC-SVG-20010904/DTD/svg10.dtd">
<svg version="1.0" xmlns="http://www.w3.org/2000/svg"
 width="858.000000pt" height="266.000000pt" viewBox="0 0 858.000000 266.000000"
 preserveAspectRatio="xMidYMid meet">

<g transform="translate(0.000000,266.000000) scale(0.100000,-0.100000)"
fill="#000000" stroke="none">
<path d="M1130 2625 c-449 -72 -843 -387 -1011 -809 -73 -185 -101 -361 -88
-562 9 -156 36 -283 85 -407 172 -435 557 -749 1007 -822 138 -22 6171 -23
6298 0 125 21 253 61 349 108 533 260 828 823 735 1402 -90 560 -540 1006
-1100 1091 -133 20 -6147 19 -6275 -1z m6195 -225 c250 -29 471 -135 644 -308
121 -121 202 -250 258 -412 46 -131 58 -208 57 -375 -1 -129 -5 -164 -27 -250
-96 -359 -355 -637 -707 -757 -182 -61 19 -58 -3280 -58 -3315 0 -3102 -4
-3286 61 -105 37 -169 68 -244 119 -183 124 -316 283 -399 480 -45 106 -70
208 -82 342 -18 202 18 386 113 570 59 115 103 178 191 267 172 177 412 295
652 321 112 12 6004 12 6110 0z"/>
<path d="M4506 1914 c-43 -7 -79 -14 -81 -16 -8 -9 -196 -817 -201 -865 -15
-145 58 -230 206 -241 l65 -4 22 87 c19 79 19 87 4 91 -40 12 -66 32 -75 56
-8 21 12 116 94 455 56 235 105 434 107 441 6 15 -34 14 -141 -4z"/>
<path d="M5761 1914 c-47 -8 -85 -15 -86 -17 -1 -1 -54 -225 -119 -497 -65
-272 -124 -519 -131 -547 l-13 -53 108 0 108 0 37 153 c21 83 41 158 45 166 9
18 93 -117 146 -234 l38 -85 119 0 c118 0 118 0 112 23 -25 83 -112 252 -178
346 l-24 35 186 183 186 182 -125 1 -126 0 -74 -76 c-83 -84 -210 -197 -216
-192 -2 2 30 143 71 312 41 170 75 310 75 312 0 7 -54 2 -139 -12z"/>
<path d="M1964 1902 c-68 -43 -96 -113 -70 -175 19 -47 85 -74 143 -58 146 40
152 235 7 248 -37 3 -57 -1 -80 -15z"/>
<path d="M1291 1580 c-140 -30 -221 -121 -221 -249 0 -93 52 -156 176 -212 35
-16 73 -38 84 -49 28 -28 25 -64 -6 -89 -40 -32 -163 -30 -246 4 -34 14 -62
24 -63 22 -7 -7 -65 -147 -65 -155 0 -14 86 -49 158 -62 37 -8 99 -11 150 -7
201 12 312 105 312 261 0 95 -39 142 -183 221 -79 43 -92 54 -95 79 -5 39 22
64 75 72 40 6 90 -2 189 -31 18 -6 26 4 58 70 20 43 36 78 36 80 0 2 -28 13
-62 25 -71 25 -225 35 -297 20z"/>
<path d="M2452 1580 c-106 -16 -182 -42 -187 -64 -3 -12 -43 -176 -88 -366
l-84 -345 105 -3 c59 -1 108 1 111 7 3 5 37 140 75 300 l69 291 63 0 c56 0 65
-3 83 -26 32 -41 26 -102 -33 -349 l-52 -220 104 -3 c58 -1 107 -1 109 2 15
14 113 458 113 509 0 57 1 58 35 73 19 7 54 14 79 14 36 0 48 -5 65 -26 32
-41 26 -102 -33 -349 l-52 -220 104 -3 c58 -1 107 -1 109 2 3 3 29 105 59 228
73 303 72 395 -2 478 -48 53 -110 75 -209 74 -69 0 -90 -5 -151 -33 l-72 -33
-39 26 c-62 41 -158 54 -281 36z"/>
<path d="M3715 1584 c-82 -11 -196 -38 -204 -48 -8 -11 -241 -969 -241 -993 0
-10 28 -13 105 -13 l104 0 9 33 c5 17 19 75 32 128 l23 97 116 4 c110 3 120 5
193 40 101 48 168 114 213 211 101 213 49 445 -115 516 -50 21 -169 34 -235
25z m138 -205 c77 -60 52 -267 -43 -353 -21 -18 -55 -39 -76 -47 -42 -13 -128
-18 -139 -7 -6 5 46 239 86 391 l10 37 68 0 c54 0 74 -4 94 -21z"/>
<path d="M5037 1580 c-97 -25 -208 -104 -265 -189 -61 -92 -86 -177 -87 -291
0 -88 3 -101 34 -164 38 -77 86 -115 181 -143 66 -19 216 -13 298 12 l54 16
-7 82 c-4 45 -8 83 -9 84 -1 2 -36 -4 -77 -13 -84 -18 -178 -14 -213 9 -21 14
-54 73 -45 82 2 2 49 8 104 14 155 17 241 49 304 113 89 89 97 239 17 326 -53
59 -187 87 -289 62z m108 -170 c36 -14 49 -52 31 -95 -21 -50 -71 -71 -218
-90 -44 -6 -48 -4 -48 15 0 56 71 142 136 165 47 17 65 18 99 5z"/>
<path d="M6620 1574 c-147 -40 -273 -167 -321 -327 -30 -98 -24 -240 14 -313
30 -59 72 -98 137 -128 36 -16 66 -20 150 -21 94 0 211 16 237 34 9 5 1 157
-9 166 -2 2 -32 -3 -68 -11 -137 -29 -219 -11 -253 56 l-17 35 57 7 c226 30
285 49 354 118 80 80 99 192 49 289 -48 95 -185 134 -330 95z m123 -165 c29
-16 37 -28 37 -62 0 -62 -83 -107 -224 -121 l-58 -6 7 27 c28 117 157 204 238
162z"/>
<path d="M1860 1563 c0 -7 -168 -716 -176 -745 -5 -16 5 -18 103 -18 l109 0
88 368 c48 202 90 375 92 385 5 15 -5 17 -105 17 -61 0 -111 -3 -111 -7z"/>
<path d="M7113 1463 c9 -139 40 -347 76 -503 28 -122 28 -126 11 -155 -10 -16
-37 -43 -60 -60 -33 -24 -52 -30 -93 -30 -29 0 -66 4 -83 8 l-32 8 -31 -81
c-17 -45 -31 -83 -31 -86 0 -2 26 -11 57 -20 134 -39 275 5 388 120 70 72 218
287 303 440 64 114 145 287 187 399 l25 68 -116 -3 -116 -3 -48 -138 c-47
-136 -139 -335 -164 -356 -16 -14 -30 80 -47 332 l-12 167 -110 0 -110 0 6
-107z"/>
</g>
</svg>
